<svg width="137" height="104" viewBox="0 0 137 104" fill="none" xmlns="http://www.w3.org/2000/svg">
<path d="M51.7049 16.5708H24.681C21.7297 16.5708 20.2626 20.1489 22.3645 22.2207L48.2537 47.7389C49.5649 49.0313 49.5649 51.1467 48.2537 52.4391L1.73204 98.2942C-0.369862 100.366 1.09715 103.944 4.04846 103.944H32.346C33.2129 103.944 34.045 103.603 34.6624 102.994L85.3158 53.0668C86.627 51.7744 86.627 49.659 85.3158 48.3666L54.0213 17.5205C53.4039 16.9119 52.5718 16.5708 51.7049 16.5708Z" fill="black"/>
<path d="M133.143 0H104.082C103.215 0 102.383 0.341155 101.765 0.949719L75.8554 26.4882L92.7706 43.1609C94.0552 44.4272 96.1187 44.4272 97.4034 43.1609L135.46 5.64991C137.562 3.57813 136.095 0 133.143 0Z" fill="black"/>
<path d="M92.7706 57.0171L75.7281 73.8153C75.1661 74.3692 75.1618 75.2745 75.7183 75.8338L86.7325 86.9031C87.3518 87.5255 88.1937 87.8754 89.0717 87.8754H120.662C123.613 87.8754 125.08 84.2973 122.978 82.2255L97.4034 57.0171C96.1187 55.7508 94.0553 55.7508 92.7706 57.0171Z" fill="black"/>
</svg>
